<svg xmlns="http://www.w3.org/2000/svg" width="256" height="256" viewBox="0 0 256 256" fill="none">
  <!-- Background gradient -->
  <defs>
    <linearGradient id="grad1" x1="0%" y1="0%" x2="100%" y2="100%">
      <stop offset="0%" style="stop-color:#6366F1;stop-opacity:1" />
      <stop offset="50%" style="stop-color:#3B82F6;stop-opacity:1" />
      <stop offset="100%" style="stop-color:#06B6D4;stop-opacity:1" />
    </linearGradient>
    <linearGradient id="grad2" x1="0%" y1="0%" x2="100%" y2="0%">
      <stop offset="0%" style="stop-color:#FFFFFF;stop-opacity:0.95" />
      <stop offset="100%" style="stop-color:#E0E7FF;stop-opacity:0.95" />
    </linearGradient>
  </defs>

  <!-- Rounded square background -->
  <rect width="256" height="256" rx="48" fill="url(#grad1)"/>

  <!-- V letter -->
  <path d="M 75 70 L 108 180 L 128 180 L 161 70 L 140 70 L 118 155 L 96 70 Z"
        fill="url(#grad2)"
        stroke="none"/>

  <!-- C letter -->
  <path d="M 195 180 C 215 180 225 170 225 150 L 225 100 C 225 80 215 70 195 70 L 175 70 L 175 90 L 195 90 C 200 90 205 95 205 100 L 205 150 C 205 155 200 160 195 160 L 175 160 L 175 180 Z"
        fill="url(#grad2)"
        stroke="none"/>

  <!-- Accent dot -->
  <circle cx="118" cy="200" r="8" fill="#06B6D4"/>
</svg>
